<?xml version="1.0" encoding="UTF-8"?><svg xmlns="http://www.w3.org/2000/svg" xmlns:xlink="http://www.w3.org/1999/xlink" height="1830.0" preserveAspectRatio="xMidYMid meet" version="1.0" viewBox="335.6 335.0 1829.6 1830.0" width="1829.6" zoomAndPan="magnify"><g><g id="change1_1"><path d="M 997.972656 658.746094 L 445.652344 658.859375 C 393.792969 658.859375 351.757812 700.859375 351.769531 752.640625 L 352.015625 1999.390625 C 352.023438 2051.179688 394.074219 2093.148438 445.9375 2093.140625 L 998.253906 2093.03125 C 1050.113281 2093.019531 1092.152344 2051.03125 1092.140625 1999.238281 L 1091.890625 752.492188 C 1091.882812 700.710938 1049.832031 658.734375 997.972656 658.746094"/></g><g id="change1_2"><path d="M 381.859375 819.8125 L 335.625 819.824219 L 335.648438 942.085938 L 381.882812 942.074219 L 381.859375 819.8125"/></g><g id="change2_1"><path d="M 381.855469 822.078125 L 359.667969 822.078125 L 359.691406 939.882812 L 381.878906 939.871094 L 381.855469 822.078125" fill="#fff"/></g><g id="change1_3"><path d="M 361.882812 824.28125 L 361.90625 937.667969 L 379.667969 937.65625 L 379.644531 824.28125 Z M 359.695312 942.089844 C 359.109375 942.089844 358.546875 941.851562 358.128906 941.4375 C 357.71875 941.027344 357.484375 940.460938 357.484375 939.871094 L 357.460938 822.078125 C 357.460938 820.851562 358.449219 819.859375 359.671875 819.859375 L 381.855469 819.859375 C 382.445312 819.859375 383.007812 820.097656 383.421875 820.511719 C 383.835938 820.921875 384.070312 821.480469 384.070312 822.066406 L 384.09375 939.871094 C 384.09375 941.089844 383.101562 942.078125 381.878906 942.078125 L 359.695312 942.089844"/></g><g id="change3_1"><path d="M 1047.285156 658.746094 L 494.972656 658.859375 C 443.109375 658.859375 401.078125 700.859375 401.085938 752.640625 L 401.332031 1999.382812 C 401.34375 2051.171875 443.394531 2093.140625 495.253906 2093.132812 L 1047.566406 2093.023438 C 1099.425781 2093.011719 1141.472656 2051.023438 1141.460938 1999.234375 L 1141.210938 752.492188 C 1141.199219 700.710938 1099.144531 658.734375 1047.285156 658.746094" fill="#8c7bff"/></g><g id="change2_2"><path d="M 401.078125 1881.339844 L 1140.355469 1881.199219 L 1140.152344 849.96875 L 400.875 850.109375 L 401.078125 1881.339844" fill="#fff"/></g><g id="change1_4"><path d="M 403.085938 852.339844 L 403.285156 1879.132812 L 1138.136719 1878.980469 L 1137.933594 852.1875 Z M 401.074219 1883.554688 C 400.488281 1883.554688 399.925781 1883.324219 399.511719 1882.902344 C 399.097656 1882.492188 398.863281 1881.933594 398.863281 1881.34375 L 398.664062 850.128906 C 398.664062 848.902344 399.648438 847.910156 400.875 847.910156 L 1140.140625 847.765625 C 1140.742188 847.765625 1141.296875 848 1141.703125 848.414062 C 1142.128906 848.832031 1142.351562 849.386719 1142.351562 849.976562 L 1142.554688 1881.203125 C 1142.554688 1882.421875 1141.5625 1883.410156 1140.34375 1883.410156 L 401.074219 1883.554688"/></g><g id="change1_5"><path d="M 1047.925781 658.722656 L 1047.925781 660.941406 L 494.050781 661.054688 C 470.09375 661.054688 447.246094 670.226562 429.726562 686.863281 C 412.835938 702.910156 403.148438 724.183594 403.152344 745.222656 L 403.398438 1993.527344 C 403.40625 2020.667969 412.878906 2045.539062 430.078125 2063.546875 C 446.925781 2081.199219 469.742188 2090.917969 494.3125 2090.917969 C 494.320312 2090.917969 494.324219 2090.917969 494.332031 2090.917969 L 1048.214844 2090.808594 C 1100.035156 2090.796875 1139.113281 2048.917969 1139.101562 1993.378906 L 1138.851562 745.074219 C 1138.839844 700.253906 1096.363281 660.941406 1047.945312 660.941406 C 1047.933594 660.941406 1047.933594 660.941406 1047.925781 660.941406 Z M 494.3125 2095.335938 C 468.519531 2095.335938 444.570312 2085.136719 426.878906 2066.609375 C 408.890625 2047.769531 398.984375 2021.816406 398.976562 1993.527344 L 398.730469 745.222656 C 398.726562 722.976562 408.914062 700.535156 426.683594 683.664062 C 445.027344 666.234375 468.953125 656.632812 494.050781 656.632812 L 1047.925781 656.519531 L 1047.945312 656.519531 C 1098.726562 656.519531 1143.261719 697.890625 1143.273438 745.074219 L 1143.523438 1993.378906 C 1143.535156 2051.4375 1102.566406 2095.21875 1048.214844 2095.226562 L 494.332031 2095.335938 C 494.328125 2095.335938 494.320312 2095.335938 494.3125 2095.335938"/></g><g id="change1_6"><path d="M 746.140625 705.449219 C 744.917969 705.449219 743.929688 704.46875 743.929688 703.242188 C 743.929688 702.027344 744.917969 701.035156 746.140625 701.035156 L 904.613281 701 C 905.832031 701 906.820312 701.996094 906.820312 703.207031 C 906.820312 704.433594 905.832031 705.425781 904.613281 705.425781 L 746.140625 705.449219"/></g><g id="change1_7"><path d="M 718.109375 693.816406 C 715.585938 693.816406 713.214844 694.792969 711.429688 696.582031 C 709.644531 698.359375 708.664062 700.738281 708.664062 703.246094 C 708.664062 708.445312 712.902344 712.679688 718.109375 712.679688 C 718.109375 712.679688 718.109375 712.679688 718.113281 712.679688 C 720.636719 712.679688 723.011719 711.699219 724.792969 709.914062 C 726.578125 708.136719 727.558594 705.769531 727.558594 703.246094 C 727.558594 698.050781 723.320312 693.816406 718.109375 693.816406 Z M 718.109375 717.097656 C 710.464844 717.097656 704.242188 710.890625 704.242188 703.246094 C 704.242188 699.546875 705.683594 696.070312 708.304688 693.449219 C 710.921875 690.839844 714.40625 689.394531 718.109375 689.394531 C 725.757812 689.394531 731.980469 695.605469 731.980469 703.246094 C 731.980469 706.945312 730.539062 710.421875 727.917969 713.046875 C 725.300781 715.65625 721.816406 717.097656 718.113281 717.097656 C 718.113281 717.097656 718.109375 717.097656 718.109375 717.097656"/></g><g id="change4_1"><path d="M 2032.746094 441.128906 L 2162.847656 339.222656 L 2027.398438 629.03125 L 2032.746094 441.128906" fill="#4ada85"/></g><g id="change5_1"><path d="M 2029.28125 436.304688 L 2159.859375 335 L 1846.210938 395.300781 L 2029.28125 436.304688" fill="#1ec15f"/></g><g id="change5_2"><path d="M 1753.050781 600.15625 C 1751.921875 611.410156 1752.324219 629.125 1763.890625 638.714844 C 1765.96875 640.433594 1769.210938 642.484375 1772.878906 642.421875 C 1778.328125 642.359375 1783.398438 637.25 1784.1875 631.054688 C 1784.898438 625.53125 1782.632812 619.285156 1777.976562 613.925781 C 1772.832031 608.019531 1765.457031 603.585938 1756.65625 601.082031 C 1755.464844 600.757812 1754.261719 600.441406 1753.050781 600.15625 Z M 1744.761719 888.726562 C 1744.636719 888.726562 1744.511719 888.714844 1744.371094 888.6875 C 1698.175781 880.5 1658.785156 856.886719 1636.3125 823.898438 C 1621.339844 801.925781 1612.9375 773.832031 1612.664062 744.808594 C 1612.25 699.4375 1634.285156 649.320312 1667.5 620.097656 C 1691 599.441406 1718.394531 590.589844 1746.75 594.507812 C 1747.589844 594.621094 1748.429688 594.746094 1749.253906 594.898438 C 1755.277344 554.09375 1780.730469 517.1875 1817.6875 495.828125 C 1855.824219 473.78125 1893.421875 477.007812 1933.234375 480.414062 C 1938.679688 480.890625 1944.164062 481.355469 1949.738281 481.765625 C 1963.644531 482.804688 1990.453125 479.511719 2002.457031 460.597656 C 2003.121094 459.558594 2004.472656 459.257812 2005.511719 459.90625 C 2006.550781 460.558594 2006.851562 461.921875 2006.203125 462.960938 C 1993.066406 483.644531 1964.320312 487.300781 1949.410156 486.1875 C 1943.828125 485.761719 1938.320312 485.296875 1932.859375 484.820312 C 1893.773438 481.464844 1856.839844 478.300781 1819.894531 499.65625 C 1784.046875 520.378906 1759.371094 556.199219 1753.601562 595.75 C 1755.039062 596.074219 1756.453125 596.4375 1757.867188 596.835938 C 1767.496094 599.566406 1775.597656 604.476562 1781.304688 611.023438 C 1786.789062 617.332031 1789.445312 624.84375 1788.582031 631.617188 C 1787.503906 639.917969 1780.492188 646.753906 1772.941406 646.84375 C 1768.011719 646.867188 1763.703125 644.3125 1761.0625 642.121094 C 1748.339844 631.566406 1747.164062 613.4375 1748.691406 599.277344 C 1747.839844 599.140625 1747 599.003906 1746.152344 598.890625 C 1719.09375 595.148438 1692.929688 603.636719 1670.429688 623.429688 C 1638.117188 651.851562 1616.667969 700.613281 1617.082031 744.761719 C 1617.359375 772.929688 1625.472656 800.148438 1639.96875 821.40625 C 1661.777344 853.421875 1700.113281 876.355469 1745.148438 884.332031 C 1746.351562 884.558594 1747.152344 885.695312 1746.9375 886.898438 C 1746.75 887.976562 1745.8125 888.726562 1744.761719 888.726562" fill="#1ec15f"/></g><g id="change6_1"><path d="M 1303 1836.789062 L 1181.679688 1807.441406 L 1149.53125 1940.339844 L 1270.851562 1969.699219 L 1303 1836.789062" fill="#020202"/></g><g id="change2_3"><path d="M 1299.671875 1912.398438 L 1301.558594 1915.101562 C 1323.191406 1946.078125 1320.738281 1971.550781 1330.460938 2014.441406 L 1170.488281 2061.761719 L 936.214844 2050.398438 L 897.648438 2024.460938 L 913.191406 1992.101562 L 1045.269531 1957.210938 L 1137.730469 1906.320312 L 1157.769531 1880.011719 L 1182.449219 1881.519531 L 1201.988281 1902.121094 L 1200.519531 1926.261719 C 1223.089844 1941.710938 1226.929688 1948.660156 1238.570312 1949.371094 C 1238.820312 1949.308594 1258.179688 1952.441406 1265.519531 1934.199219 L 1273.078125 1915.421875 C 1277.589844 1904.210938 1292.75 1902.480469 1299.671875 1912.398438" fill="#fff"/></g><g id="change1_8"><path d="M 936.933594 2048.21875 L 1170.21875 2059.539062 L 1327.851562 2012.910156 C 1325.300781 2001.371094 1323.589844 1990.949219 1322.070312 1981.691406 C 1318.058594 1957.308594 1314.890625 1938.058594 1299.75 1916.359375 L 1297.859375 1913.660156 C 1295.078125 1909.679688 1290.550781 1907.628906 1285.71875 1908.179688 C 1280.898438 1908.730469 1276.941406 1911.75 1275.128906 1916.25 L 1267.570312 1935.019531 C 1260.609375 1952.320312 1243.648438 1952.078125 1238.621094 1951.589844 C 1238.601562 1951.578125 1238.601562 1951.578125 1238.601562 1951.578125 L 1238.429688 1951.570312 C 1229.910156 1951.050781 1225.328125 1947.519531 1216.191406 1940.488281 C 1211.910156 1937.191406 1206.578125 1933.078125 1199.269531 1928.078125 L 1198.238281 1927.371094 L 1199.730469 1902.941406 L 1181.449219 1883.671875 L 1158.808594 1882.289062 L 1139.199219 1908.03125 L 1045.828125 1959.351562 L 914.742188 1993.980469 L 900.472656 2023.699219 Z M 1170.761719 2063.988281 L 1170.378906 2063.96875 L 935.488281 2052.578125 L 894.828125 2025.230469 L 911.640625 1990.21875 L 1044.441406 1955.140625 L 1136.25 1904.609375 L 1156.71875 1877.730469 L 1183.460938 1879.359375 L 1204.261719 1901.289062 L 1202.800781 1925.148438 C 1209.679688 1929.898438 1214.769531 1933.808594 1218.890625 1936.980469 C 1227.550781 1943.648438 1231.519531 1946.710938 1238.648438 1947.160156 C 1238.78125 1947.160156 1238.898438 1947.171875 1239.039062 1947.191406 C 1244.511719 1947.710938 1257.808594 1947.421875 1263.46875 1933.371094 L 1271.03125 1914.601562 C 1273.460938 1908.570312 1278.761719 1904.519531 1285.21875 1903.789062 C 1291.679688 1903.050781 1297.761719 1905.800781 1301.488281 1911.128906 L 1303.371094 1913.828125 C 1319.089844 1936.351562 1322.328125 1956.039062 1326.429688 1980.980469 C 1328.03125 1990.710938 1329.851562 2001.730469 1332.609375 2013.949219 L 1333.070312 2015.96875 L 1170.761719 2063.988281"/></g><g id="change6_2"><path d="M 897.648438 2024.460938 L 911.882812 2028.101562 C 950.394531 2037.941406 989.894531 2043.390625 1029.628906 2044.339844 L 1045.511719 2044.710938 C 1124.941406 2046.609375 1204.328125 2039.691406 1282.230469 2024.101562 L 1330.460938 2014.441406 L 1352.738281 2037.28125 L 1359.328125 2091.640625 L 1294.570312 2115.21875 C 1294.570312 2115.21875 1249.171875 2112.671875 1191.558594 2109.351562 L 1178.480469 2094.578125 L 1156.878906 2093.261719 L 1141.941406 2106.480469 C 1051.898438 2101.230469 955.269531 2095.398438 954.445312 2094.460938 C 952.902344 2092.71875 903.679688 2064.660156 903.679688 2064.660156 L 896.226562 2047.820312 L 897.648438 2024.460938" fill="#020202"/></g><g id="change1_9"><path d="M 1140.21875 1939.558594 C 1139.75 1939.558594 1139.269531 1939.398438 1138.859375 1939.078125 L 1114.140625 1919.671875 C 1113.179688 1918.910156 1113.011719 1917.519531 1113.769531 1916.558594 C 1114.519531 1915.601562 1115.910156 1915.429688 1116.871094 1916.191406 L 1141.589844 1935.609375 C 1142.550781 1936.359375 1142.71875 1937.75 1141.960938 1938.710938 C 1141.53125 1939.269531 1140.878906 1939.558594 1140.21875 1939.558594"/></g><g id="change1_10"><path d="M 1117.011719 1953.171875 C 1116.53125 1953.171875 1116.050781 1953.019531 1115.640625 1952.699219 L 1090.921875 1933.28125 C 1089.960938 1932.53125 1089.789062 1931.140625 1090.550781 1930.179688 C 1091.300781 1929.210938 1092.691406 1929.050781 1093.648438 1929.800781 L 1118.371094 1949.21875 C 1119.328125 1949.980469 1119.5 1951.371094 1118.75 1952.328125 C 1118.308594 1952.878906 1117.660156 1953.171875 1117.011719 1953.171875"/></g><g id="change1_11"><path d="M 1093.789062 1966.789062 C 1093.308594 1966.789062 1092.828125 1966.628906 1092.421875 1966.308594 L 1067.699219 1946.898438 C 1066.738281 1946.140625 1066.578125 1944.75 1067.328125 1943.789062 C 1068.078125 1942.828125 1069.46875 1942.660156 1070.429688 1943.421875 L 1095.148438 1962.839844 C 1096.121094 1963.589844 1096.28125 1964.980469 1095.53125 1965.941406 C 1095.089844 1966.5 1094.441406 1966.789062 1093.789062 1966.789062"/></g><g id="change7_1"><path d="M 1146.019531 1951.820312 L 1040.230469 1796.148438 L 792.402344 1907.378906 L 854.476562 2016.839844 L 1146.019531 1951.820312" fill="#955b50"/></g><g id="change1_12"><path d="M 799.101562 1907.289062 L 859.402344 2014.511719 L 1143.019531 1952.128906 L 1039.949219 1798.75 Z M 858.277344 2019.230469 C 857.488281 2019.230469 856.746094 2018.808594 856.351562 2018.101562 L 794.0625 1907.351562 C 793.757812 1906.808594 793.695312 1906.171875 793.890625 1905.578125 C 794.082031 1904.988281 794.515625 1904.511719 795.082031 1904.25 L 1039.828125 1793.949219 C 1040.808594 1793.5 1041.96875 1793.839844 1042.570312 1794.730469 L 1148.5 1952.359375 C 1148.910156 1952.96875 1148.988281 1953.738281 1148.71875 1954.421875 C 1148.449219 1955.101562 1147.859375 1955.601562 1147.140625 1955.75 L 858.753906 2019.179688 C 858.59375 2019.210938 858.433594 2019.230469 858.277344 2019.230469"/></g><g id="change2_4"><path d="M 905.933594 2015.71875 L 904.738281 2018.789062 C 891.023438 2053.988281 868.488281 2066.128906 838.253906 2098.058594 L 709.949219 1991.441406 L 589.082031 1790.429688 L 589.1875 1743.960938 L 624.726562 1738.871094 L 727.1875 1829.230469 L 820.902344 1877.761719 L 853.914062 1879.78125 L 866.394531 1901.128906 L 860.140625 1928.828125 L 839.265625 1941.03125 C 838.976562 1968.390625 835.339844 1975.441406 841.222656 1985.5 C 841.414062 1985.679688 849.574219 2003.511719 868.820312 1999.460938 L 888.625 1995.300781 C 900.457031 1992.820312 910.324219 2004.449219 905.933594 2015.71875" fill="#fff"/></g><g id="change1_13"><path d="M 839.65625 1987.058594 C 839.65625 1987.058594 839.660156 1987.070312 839.660156 1987.070312 C 839.660156 1987.070312 839.65625 1987.058594 839.65625 1987.058594 Z M 839.664062 1987.070312 C 839.664062 1987.070312 839.667969 1987.070312 839.667969 1987.078125 C 839.667969 1987.070312 839.664062 1987.070312 839.664062 1987.070312 Z M 839.671875 1987.078125 C 839.671875 1987.078125 839.675781 1987.078125 839.675781 1987.078125 C 839.675781 1987.078125 839.671875 1987.078125 839.671875 1987.078125 Z M 839.679688 1987.089844 C 839.679688 1987.089844 839.679688 1987.089844 839.683594 1987.089844 C 839.679688 1987.089844 839.679688 1987.089844 839.679688 1987.089844 Z M 839.6875 1987.089844 C 839.6875 1987.089844 839.6875 1987.101562 839.691406 1987.101562 C 839.6875 1987.101562 839.6875 1987.089844 839.6875 1987.089844 Z M 839.691406 1987.101562 C 839.695312 1987.101562 839.695312 1987.101562 839.699219 1987.101562 C 839.695312 1987.101562 839.695312 1987.101562 839.691406 1987.101562 Z M 839.699219 1987.109375 C 839.699219 1987.109375 839.703125 1987.109375 839.707031 1987.109375 C 839.703125 1987.109375 839.699219 1987.109375 839.699219 1987.109375 Z M 839.707031 1987.109375 C 839.707031 1987.109375 839.710938 1987.121094 839.714844 1987.121094 C 839.710938 1987.121094 839.707031 1987.109375 839.707031 1987.109375 Z M 711.652344 1989.980469 L 838.078125 2095.039062 C 846.25 2086.511719 853.957031 2079.289062 860.800781 2072.878906 C 878.832031 2055.980469 893.074219 2042.640625 902.679688 2017.988281 L 903.875 2014.921875 C 905.636719 2010.398438 904.8125 2005.488281 901.675781 2001.78125 C 898.539062 1998.078125 893.828125 1996.46875 889.078125 1997.46875 L 869.273438 2001.628906 C 851.042969 2005.460938 841.804688 1991.230469 839.40625 1986.78125 C 839.375 1986.710938 839.46875 1986.871094 839.65625 1987.058594 C 839.523438 1986.929688 839.40625 1986.78125 839.3125 1986.621094 C 835.007812 1979.25 835.390625 1973.480469 836.15625 1961.96875 C 836.515625 1956.578125 836.960938 1949.859375 837.054688 1941.011719 C 837.0625 1940.230469 837.476562 1939.511719 838.148438 1939.121094 L 858.195312 1927.398438 L 864.046875 1901.488281 L 852.601562 1881.910156 L 820.769531 1879.960938 C 820.460938 1879.941406 820.160156 1879.859375 819.886719 1879.71875 L 726.167969 1831.191406 C 726.011719 1831.109375 725.859375 1831.011719 725.722656 1830.890625 L 624.03125 1741.199219 L 591.394531 1745.878906 L 591.292969 1789.820312 Z M 838.253906 2100.269531 C 837.753906 2100.269531 837.253906 2100.101562 836.839844 2099.761719 L 708.539062 1993.148438 C 708.347656 1992.988281 708.183594 1992.800781 708.058594 1992.578125 L 587.1875 1791.570312 C 586.976562 1791.230469 586.867188 1790.828125 586.867188 1790.429688 L 586.976562 1743.960938 C 586.980469 1742.859375 587.785156 1741.929688 588.875 1741.769531 L 624.414062 1736.679688 C 625.0625 1736.589844 625.703125 1736.789062 626.191406 1737.210938 L 728.445312 1827.390625 L 821.507812 1875.578125 L 854.050781 1877.570312 C 854.785156 1877.621094 855.449219 1878.019531 855.824219 1878.660156 L 868.300781 1900.011719 C 868.585938 1900.5 868.675781 1901.070312 868.550781 1901.621094 L 862.300781 1929.308594 C 862.164062 1929.910156 861.785156 1930.429688 861.257812 1930.738281 L 841.457031 1942.308594 C 841.339844 1950.671875 840.910156 1957.070312 840.566406 1962.261719 C 839.84375 1973.171875 839.511719 1978.160156 843.105469 1984.339844 C 843.171875 1984.449219 843.230469 1984.558594 843.300781 1984.691406 C 845.898438 1989.519531 853.535156 2000.410156 868.363281 1997.300781 L 888.171875 1993.140625 C 894.527344 1991.800781 900.84375 1993.960938 905.050781 1998.921875 C 909.253906 2003.878906 910.355469 2010.460938 907.996094 2016.519531 L 906.796875 2019.601562 C 896.828125 2045.179688 882.265625 2058.828125 863.824219 2076.101562 C 856.628906 2082.851562 848.472656 2090.488281 839.859375 2099.578125 C 839.425781 2100.039062 838.839844 2100.269531 838.253906 2100.269531"/></g><g id="change6_3"><path d="M 589.1875 1743.960938 L 594.082031 1757.808594 C 607.324219 1795.289062 624.769531 1831.140625 646.082031 1864.691406 L 654.605469 1878.101562 C 697.207031 1945.160156 747.109375 2007.289062 803.402344 2063.351562 L 838.253906 2098.058594 L 831.671875 2129.28125 L 790.160156 2165 L 734.542969 2124.300781 C 734.542969 2124.300781 711.40625 2085.148438 682.117188 2035.429688 L 687.125 2016.339844 L 676.207031 1997.648438 L 656.90625 1992.589844 C 611.183594 1914.839844 562.289062 1831.300781 562.605469 1830.101562 C 563.199219 1827.839844 559.136719 1771.328125 559.136719 1771.328125 L 568.980469 1755.769531 L 589.1875 1743.960938" fill="#020202"/></g><g id="change1_14"><path d="M 796.515625 1899.300781 C 796.457031 1899.300781 796.398438 1899.300781 796.34375 1899.300781 C 795.125 1899.199219 794.214844 1898.140625 794.308594 1896.921875 L 796.695312 1865.578125 C 796.789062 1864.359375 797.828125 1863.449219 799.066406 1863.539062 C 800.285156 1863.628906 801.195312 1864.699219 801.105469 1865.910156 L 798.714844 1897.261719 C 798.628906 1898.421875 797.660156 1899.300781 796.515625 1899.300781"/></g><g id="change1_15"><path d="M 772.285156 1887.578125 C 772.230469 1887.578125 772.171875 1887.578125 772.113281 1887.570312 C 770.898438 1887.480469 769.984375 1886.421875 770.078125 1885.199219 L 772.464844 1853.851562 C 772.558594 1852.640625 773.613281 1851.710938 774.839844 1851.820312 C 776.054688 1851.910156 776.96875 1852.96875 776.875 1854.191406 L 774.488281 1885.539062 C 774.398438 1886.699219 773.429688 1887.578125 772.285156 1887.578125"/></g><g id="change1_16"><path d="M 748.054688 1875.859375 C 748 1875.859375 747.941406 1875.851562 747.886719 1875.851562 C 746.667969 1875.761719 745.757812 1874.699219 745.851562 1873.480469 L 748.234375 1842.128906 C 748.328125 1840.921875 749.375 1840 750.609375 1840.101562 C 751.824219 1840.191406 752.738281 1841.25 752.644531 1842.46875 L 750.257812 1873.808594 C 750.171875 1874.96875 749.199219 1875.859375 748.054688 1875.859375"/></g><g id="change8_1"><path d="M 1095.234375 1919.886719 L 1142.292969 1462.4375 C 1154.054688 1348.117188 1288.832031 1293.445312 1376.902344 1367.265625 L 1469.742188 1445.066406 L 1978.917969 1857.097656 L 1914.148438 1937.136719 C 1841.109375 2027.398438 1708.742188 2041.359375 1618.476562 1968.316406 L 1394.882812 1787.378906 L 1317.511719 1942.746094 L 1095.234375 1919.886719" fill="#fed101"/></g><g id="change8_2"><path d="M 1022.761719 1792.921875 L 1283.230469 1680.199219 C 1360.527344 1646.75 1441.039062 1639.820312 1521.929688 1665.429688 L 2139.441406 1856.738281 L 2113.203125 1931.429688 C 2071.726562 2037.859375 1942.375 2093.839844 1824.285156 2056.460938 L 1417.425781 1906.691406 L 1145.980469 2010.53125 L 1022.761719 1792.921875" fill="#fed101"/></g><g id="change1_17"><path d="M 1417.433594 1904.46875 C 1417.695312 1904.46875 1417.957031 1904.519531 1418.191406 1904.609375 L 1825.042969 2054.378906 C 1941.769531 2091.328125 2070.144531 2035.828125 2111.140625 1930.628906 L 2133.191406 1864.230469 L 1529.605469 1670.058594 C 1448.652344 1644.4375 1361.457031 1648.757812 1284.113281 1682.230469 L 1025.890625 1793.96875 L 1146.972656 2007.777344 L 1416.644531 1904.621094 C 1416.894531 1904.519531 1417.15625 1904.46875 1417.433594 1904.46875 Z M 1899.136719 2070.21875 C 1874.066406 2070.21875 1848.578125 2066.46875 1823.613281 2058.570312 L 1417.445312 1909.050781 L 1146.773438 2012.589844 C 1145.75 2012.980469 1144.601562 2012.570312 1144.0625 2011.617188 L 1020.832031 1794.007812 C 1020.53125 1793.457031 1020.460938 1792.808594 1020.660156 1792.207031 C 1020.859375 1791.617188 1021.300781 1791.140625 1021.882812 1790.890625 L 1282.351562 1678.167969 C 1360.683594 1644.269531 1448.96875 1639.898438 1530.945312 1665.847656 L 2136.667969 1860.707031 C 2137.234375 1860.890625 2137.707031 1861.289062 2137.96875 1861.808594 C 2138.230469 1862.339844 2138.28125 1862.949219 2138.097656 1863.507812 L 2115.300781 1932.128906 C 2082.226562 2017.019531 1993.589844 2070.210938 1899.136719 2070.21875"/></g><g id="change1_18"><path d="M 2138.65625 1846.742188 L 2113.296875 1934.101562 L 1770.875 1746.691406 L 1801.027344 1724.210938 L 2138.65625 1846.742188"/></g><g id="change1_19"><path d="M 1660.179688 1711.300781 C 1659.957031 1711.300781 1659.730469 1711.257812 1659.507812 1711.191406 L 1529.605469 1670.070312 C 1448.648438 1644.441406 1361.453125 1648.761719 1284.105469 1682.230469 C 1282.984375 1682.710938 1281.679688 1682.199219 1281.199219 1681.082031 C 1280.707031 1679.960938 1281.230469 1678.660156 1282.351562 1678.171875 C 1360.679688 1644.269531 1448.972656 1639.902344 1530.941406 1665.851562 L 1660.84375 1706.980469 C 1662.007812 1707.339844 1662.648438 1708.589844 1662.28125 1709.75 C 1661.984375 1710.691406 1661.117188 1711.289062 1660.179688 1711.300781"/></g><g id="change1_20"><path d="M 2005.863281 1092.65625 C 2010.472656 1196.71875 1927.316406 1284.914062 1820.121094 1289.671875 C 1712.9375 1294.421875 1622.304688 1213.925781 1617.679688 1109.863281 C 1613.078125 1005.796875 1696.222656 917.597656 1803.421875 912.847656 C 1910.617188 908.085938 2001.25 988.59375 2005.863281 1092.65625"/></g><g id="change7_2"><path d="M 1853.285156 1363.492188 L 1920.320312 1334.488281 L 1853.25 1179.480469 L 1786.214844 1208.484375 L 1853.285156 1363.492188" fill="#955b50"/></g><g id="change7_3"><path d="M 1852.335938 1180.257812 C 1867.574219 1215.488281 1853.859375 1255.316406 1821.707031 1269.234375 C 1789.535156 1283.15625 1751.117188 1265.878906 1735.867188 1230.65625 C 1720.617188 1195.425781 1734.34375 1155.601562 1766.507812 1141.679688 C 1798.667969 1127.757812 1837.09375 1145.035156 1852.335938 1180.257812" fill="#955b50"/></g><g id="change2_5"><path d="M 1822.976562 1235.703125 C 1820.4375 1241.398438 1816.132812 1246.351562 1810.28125 1249.628906 C 1797.230469 1256.921875 1781.082031 1253.375 1772.132812 1241.980469 L 1822.976562 1235.703125" fill="#fff"/></g><g id="change1_21"><path d="M 1797.710938 1276.675781 C 1788.878906 1276.675781 1779.9375 1274.734375 1771.367188 1270.886719 C 1754.953125 1263.5 1741.820312 1249.957031 1734.363281 1232.738281 C 1726.917969 1215.507812 1726.03125 1196.667969 1731.890625 1179.652344 C 1737.78125 1162.570312 1749.730469 1149.394531 1765.566406 1142.539062 C 1796.054688 1129.347656 1832.160156 1143.34375 1849.523438 1175.078125 C 1850.113281 1176.15625 1849.730469 1177.507812 1848.652344 1178.085938 C 1847.585938 1178.675781 1846.234375 1178.28125 1845.65625 1177.214844 C 1829.378906 1147.488281 1795.703125 1134.308594 1767.324219 1146.589844 C 1752.648438 1152.957031 1741.546875 1165.203125 1736.066406 1181.09375 C 1730.574219 1197.066406 1731.402344 1214.773438 1738.414062 1230.980469 C 1745.429688 1247.1875 1757.78125 1259.921875 1773.171875 1266.859375 C 1788.515625 1273.75 1805.042969 1274.03125 1819.730469 1267.6875 C 1825.28125 1265.269531 1830.398438 1261.976562 1834.882812 1257.914062 C 1835.789062 1257.097656 1837.1875 1257.152344 1838.003906 1258.0625 C 1838.820312 1258.957031 1838.753906 1260.367188 1837.855469 1261.183594 C 1833.011719 1265.585938 1827.492188 1269.140625 1821.476562 1271.738281 C 1813.882812 1275.019531 1805.835938 1276.675781 1797.710938 1276.675781"/></g><g id="change1_22"><path d="M 1781.269531 1182.667969 L 1737.589844 1234 C 1736.78125 1232.429688 1735.960938 1230.84375 1735.242188 1229.195312 C 1720.074219 1194.136719 1733.71875 1154.5 1765.734375 1140.652344 C 1797.738281 1126.804688 1838.648438 1144.5 1853.808594 1179.558594 C 1854.832031 1181.925781 1855.699219 1184.332031 1856.472656 1186.734375 L 1781.269531 1182.667969"/></g><g id="change1_23"><path d="M 1006.679688 1257.828125 L 850.820312 1257.828125 L 850.820312 789.625 L 1199.914062 765.402344 L 1559.019531 765.882812 L 1566.488281 1257.828125 L 1006.679688 1257.828125"/></g><g id="change7_4"><path d="M 1365.339844 1323.828125 L 1320.089844 1287.121094 C 1320.089844 1287.121094 1337.390625 1258.53125 1313.148438 1231.101562 C 1307.53125 1224.738281 1294.820312 1212.679688 1283.980469 1202.628906 C 1271.640625 1191.191406 1260.890625 1178.171875 1251.960938 1163.921875 L 1241.730469 1147.578125 C 1236.589844 1139.371094 1225.890625 1136.671875 1217.480469 1141.46875 L 1215.679688 1142.488281 C 1207.148438 1147.351562 1204.058594 1158.128906 1208.710938 1166.769531 L 1238.738281 1222.460938 L 1208.511719 1227.800781 C 1193.019531 1230.53125 1177.070312 1228.890625 1162.449219 1223.070312 L 1102.960938 1200.71875 C 1093.070312 1197 1081.960938 1201.160156 1076.921875 1210.441406 L 1076.058594 1212.03125 L 1045.359375 1196.890625 C 1036.179688 1192.71875 1025.339844 1196.511719 1020.761719 1205.5 C 1016.261719 1214.320312 1019.351562 1225.121094 1027.839844 1230.21875 L 1236.71875 1355.800781 L 1299.988281 1403.878906 L 1365.339844 1323.828125" fill="#955b50"/></g><g id="change3_2"><path d="M 830.921875 765.878906 L 1188.75 533.878906 L 1546.589844 765.878906 L 1188.761719 1018.941406 L 830.921875 765.878906" fill="#8c7bff"/></g><g id="change6_4"><path d="M 1475.402344 1191.601562 L 890.050781 1191.601562 L 890.050781 471.105469 L 1475.402344 471.105469 L 1475.402344 1191.601562" fill="#020202"/></g><g id="change2_6"><path d="M 1487.46875 1176.710938 L 902.117188 1176.710938 L 902.117188 456.222656 L 1487.46875 456.222656 L 1487.46875 1176.710938" fill="#fff"/></g><g id="change1_24"><path d="M 904.332031 1174.5 L 1485.253906 1174.5 L 1485.253906 458.425781 L 904.332031 458.425781 Z M 1487.472656 1178.917969 L 902.121094 1178.917969 C 900.898438 1178.917969 899.910156 1177.925781 899.910156 1176.707031 L 899.910156 456.21875 C 899.910156 455 900.898438 454.007812 902.121094 454.007812 L 1487.472656 454.007812 C 1488.691406 454.007812 1489.683594 455 1489.683594 456.21875 L 1489.683594 1176.707031 C 1489.683594 1177.925781 1488.691406 1178.917969 1487.472656 1178.917969"/></g><g id="change3_3"><path d="M 1239.382812 722.230469 C 1247.9375 713.457031 1252.222656 701.542969 1252.222656 686.484375 C 1252.222656 671.628906 1247.9375 659.855469 1239.382812 651.191406 C 1230.800781 642.527344 1219.824219 638.195312 1206.40625 638.195312 C 1192.789062 638.195312 1181.746094 642.578125 1173.289062 651.347656 C 1164.828125 660.121094 1160.597656 671.832031 1160.597656 686.484375 C 1160.597656 701.339844 1164.828125 713.207031 1173.289062 722.074219 C 1181.746094 730.953125 1192.789062 735.378906 1206.40625 735.378906 C 1219.824219 735.378906 1230.800781 731 1239.382812 722.230469 Z M 1284.402344 561.4375 C 1306.484375 572.992188 1323.664062 589.082031 1335.953125 609.710938 C 1348.230469 630.347656 1354.371094 653.664062 1354.371094 679.667969 C 1354.371094 706.496094 1349.105469 727.496094 1338.582031 742.652344 C 1328.058594 757.832031 1313.503906 765.402344 1294.9375 765.402344 C 1285.027344 765.402344 1276.675781 763.085938 1269.871094 758.441406 C 1263.058594 753.800781 1258.304688 747.152344 1255.628906 738.476562 C 1243.246094 756.425781 1224.683594 765.402344 1199.90625 765.402344 C 1185.878906 765.402344 1173.1875 762.054688 1161.835938 755.347656 C 1150.488281 748.640625 1141.617188 739.304688 1135.21875 727.339844 C 1128.816406 715.367188 1125.628906 701.757812 1125.628906 686.484375 C 1125.628906 671.421875 1128.816406 657.960938 1135.21875 646.082031 C 1141.617188 634.226562 1150.488281 624.9375 1161.835938 618.230469 C 1173.1875 611.523438 1185.878906 608.175781 1199.90625 608.175781 C 1210.847656 608.175781 1220.699219 610.023438 1229.46875 613.742188 C 1238.242188 617.449219 1245.621094 622.921875 1251.597656 630.144531 L 1251.597656 610.023438 L 1285.953125 610.023438 L 1285.953125 715.269531 C 1285.953125 722.695312 1287.453125 728.0625 1290.453125 731.359375 C 1293.4375 734.660156 1297.304688 736.316406 1302.054688 736.316406 C 1310.515625 736.316406 1316.957031 731.515625 1321.398438 721.917969 C 1325.835938 712.328125 1328.058594 698.445312 1328.058594 680.289062 C 1328.058594 658.417969 1323.042969 639.121094 1313.046875 622.40625 C 1303.027344 605.691406 1289.058594 592.695312 1271.109375 583.40625 C 1253.144531 574.121094 1232.507812 569.476562 1209.191406 569.476562 C 1185.675781 569.476562 1164.828125 574.382812 1146.667969 584.175781 C 1128.507812 593.980469 1114.476562 607.660156 1104.578125 625.191406 C 1094.667969 642.734375 1089.71875 662.640625 1089.71875 684.933594 C 1089.71875 707.636719 1094.617188 727.75 1104.417969 745.292969 C 1114.21875 762.835938 1128.097656 776.503906 1146.046875 786.304688 C 1164.007812 796.097656 1184.636719 801.003906 1207.957031 801.003906 C 1218.070312 801.003906 1228.34375 799.863281 1238.757812 797.597656 C 1249.171875 795.328125 1258.929688 791.921875 1268.011719 787.386719 L 1276.363281 812.152344 C 1267.28125 816.890625 1256.613281 820.503906 1244.324219 822.976562 C 1232.050781 825.460938 1219.929688 826.695312 1207.957031 826.695312 C 1179.066406 826.695312 1153.527344 820.601562 1131.347656 808.433594 C 1109.167969 796.253906 1091.9375 779.441406 1079.65625 757.976562 C 1067.378906 736.519531 1061.246094 712.171875 1061.246094 684.933594 C 1061.246094 658.105469 1067.4375 634.007812 1079.816406 612.664062 C 1092.199219 591.304688 1109.578125 574.539062 1131.96875 562.359375 C 1154.359375 550.179688 1180.097656 544.097656 1209.191406 544.097656 C 1237.257812 544.097656 1262.324219 549.882812 1284.402344 561.4375" fill="#8c7bff"/></g><g id="change8_3"><path d="M 986.785156 1235.726562 L 830.921875 1235.726562 L 830.921875 767.503906 L 1188.765625 984.9375 L 1546.605469 767.503906 L 1546.605469 1235.726562 L 986.785156 1235.726562" fill="#fed101"/></g><g id="change1_25"><path d="M 833.132812 1233.507812 L 1544.375 1233.507812 L 1544.375 769.824219 L 1189.90625 986.828125 C 1189.203125 987.253906 1188.308594 987.253906 1187.597656 986.828125 L 833.132812 769.824219 Z M 1546.59375 1237.929688 L 830.921875 1237.929688 C 829.699219 1237.929688 828.710938 1236.9375 828.710938 1235.722656 L 828.710938 765.882812 C 828.710938 765.074219 829.144531 764.339844 829.839844 763.945312 C 830.535156 763.5625 831.394531 763.570312 832.074219 763.996094 L 1188.757812 982.339844 L 1545.429688 763.996094 C 1546.125 763.570312 1546.976562 763.5625 1547.667969 763.945312 C 1548.371094 764.339844 1548.796875 765.074219 1548.796875 765.882812 L 1548.796875 1235.722656 C 1548.796875 1236.9375 1547.804688 1237.929688 1546.59375 1237.929688"/></g><g id="change1_26"><path d="M 1037.558594 1197.390625 C 1031.5 1197.390625 1025.671875 1200.730469 1022.730469 1206.5 C 1018.78125 1214.25 1021.519531 1223.839844 1028.980469 1228.320312 L 1237.859375 1353.910156 C 1237.929688 1353.949219 1237.988281 1353.988281 1238.058594 1354.039062 L 1299.628906 1400.828125 L 1362.21875 1324.148438 L 1318.699219 1288.839844 C 1317.851562 1288.148438 1317.628906 1286.929688 1318.199219 1285.980469 C 1318.871094 1284.871094 1334.328125 1258.398438 1311.488281 1232.570312 C 1306.988281 1227.46875 1296.949219 1217.671875 1282.46875 1204.25 C 1270.019531 1192.699219 1259.128906 1179.53125 1250.089844 1165.089844 L 1239.859375 1148.75 C 1235.328125 1141.53125 1225.980469 1139.171875 1218.570312 1143.390625 L 1216.769531 1144.410156 C 1209.351562 1148.640625 1206.609375 1158.199219 1210.660156 1165.71875 L 1240.691406 1221.410156 C 1241.03125 1222.039062 1241.039062 1222.789062 1240.730469 1223.429688 C 1240.421875 1224.058594 1239.828125 1224.519531 1239.128906 1224.640625 L 1208.898438 1229.96875 C 1192.988281 1232.78125 1176.648438 1231.101562 1161.628906 1225.128906 L 1102.179688 1202.789062 C 1093.371094 1199.480469 1083.351562 1203.21875 1078.871094 1211.5 L 1078.011719 1213.078125 C 1077.441406 1214.128906 1076.148438 1214.539062 1075.089844 1214.011719 L 1044.378906 1198.871094 C 1042.171875 1197.871094 1039.851562 1197.390625 1037.558594 1197.390625 Z M 1299.988281 1406.089844 C 1299.519531 1406.089844 1299.050781 1405.941406 1298.648438 1405.640625 L 1235.480469 1357.640625 L 1026.699219 1232.109375 C 1017.261719 1226.441406 1013.78125 1214.300781 1018.789062 1204.488281 C 1023.921875 1194.429688 1035.988281 1190.210938 1046.269531 1194.871094 L 1075.140625 1209.109375 C 1080.738281 1199.101562 1092.96875 1194.609375 1103.730469 1198.648438 L 1163.230469 1221 C 1177.519531 1226.691406 1193.03125 1228.289062 1208.128906 1225.621094 L 1235.339844 1220.820312 L 1206.769531 1167.820312 C 1201.578125 1158.199219 1205.089844 1145.980469 1214.578125 1140.570312 L 1216.378906 1139.550781 C 1225.859375 1134.148438 1237.820312 1137.160156 1243.609375 1146.410156 L 1253.839844 1162.75 C 1262.671875 1176.851562 1273.320312 1189.730469 1285.480469 1201.011719 C 1295.648438 1210.441406 1308.988281 1223.058594 1314.808594 1229.640625 C 1336.398438 1254.070312 1326.210938 1279.761719 1322.890625 1286.550781 L 1366.730469 1322.121094 C 1367.191406 1322.488281 1367.480469 1323.03125 1367.539062 1323.609375 C 1367.601562 1324.191406 1367.421875 1324.78125 1367.050781 1325.230469 L 1301.699219 1405.28125 C 1301.269531 1405.808594 1300.628906 1406.089844 1299.988281 1406.089844"/></g><g id="change7_5"><path d="M 1209.980469 1287.808594 L 1194.851562 1277.421875 C 1185.230469 1270.808594 1177.738281 1261.558594 1173.28125 1250.78125 L 1148.851562 1191.738281 C 1145.339844 1183.25 1135.660156 1179.148438 1127.121094 1182.539062 C 1118.988281 1185.769531 1114.691406 1194.691406 1117.238281 1203.058594 L 1138.070312 1271.511719 C 1139.75 1277.039062 1142.53125 1282.179688 1146.230469 1286.621094 L 1166.179688 1310.539062 L 1209.980469 1287.808594" fill="#955b50"/></g><g id="change7_6"><path d="M 1170.871094 1258.949219 L 1154.230469 1251.210938 C 1143.648438 1246.28125 1134.730469 1238.390625 1128.539062 1228.5 L 1094.691406 1174.308594 C 1089.828125 1166.519531 1079.601562 1164.078125 1071.738281 1168.828125 C 1064.25 1173.359375 1061.488281 1182.871094 1065.378906 1190.699219 L 1097.25 1254.769531 C 1099.820312 1259.941406 1103.410156 1264.550781 1107.789062 1268.320312 L 1131.421875 1288.609375 L 1170.871094 1258.949219" fill="#955b50"/></g><g id="change1_27"><path d="M 1107.789062 1270.53125 C 1107.28125 1270.53125 1106.769531 1270.359375 1106.351562 1270 C 1101.71875 1266.019531 1097.988281 1261.21875 1095.269531 1255.75 L 1063.398438 1191.691406 C 1059.03125 1182.890625 1062.191406 1172.019531 1070.589844 1166.941406 C 1079.441406 1161.589844 1091.089844 1164.371094 1096.570312 1173.140625 L 1122.398438 1214.871094 C 1123.039062 1215.910156 1122.71875 1217.28125 1121.679688 1217.921875 C 1120.640625 1218.558594 1119.28125 1218.238281 1118.640625 1217.199219 L 1092.808594 1175.480469 C 1088.621094 1168.761719 1079.671875 1166.621094 1072.878906 1170.71875 C 1066.429688 1174.621094 1064.011719 1182.96875 1067.359375 1189.71875 L 1099.21875 1253.78125 C 1101.679688 1258.71875 1105.050781 1263.050781 1109.230469 1266.640625 C 1110.160156 1267.441406 1110.269531 1268.828125 1109.46875 1269.761719 C 1109.03125 1270.269531 1108.421875 1270.53125 1107.789062 1270.53125"/></g><g id="change1_28"><path d="M 1157.039062 1298.628906 C 1156.53125 1298.628906 1156.011719 1298.460938 1155.589844 1298.089844 C 1142.25 1286.5 1135.070312 1276.25 1131.609375 1263.808594 L 1115.101562 1203.648438 C 1112.261719 1194.308594 1117.171875 1184.109375 1126.300781 1180.488281 C 1135.910156 1176.671875 1146.941406 1181.339844 1150.890625 1190.890625 L 1175.320312 1249.929688 C 1179.628906 1260.339844 1186.808594 1269.21875 1196.101562 1275.601562 L 1228.5 1294.429688 C 1229.558594 1295.039062 1229.921875 1296.390625 1229.300781 1297.449219 C 1228.691406 1298.5 1227.328125 1298.871094 1226.28125 1298.25 L 1193.738281 1279.328125 C 1183.601562 1272.378906 1175.871094 1262.828125 1171.238281 1251.621094 L 1146.808594 1192.578125 C 1143.769531 1185.25 1135.308594 1181.671875 1127.929688 1184.601562 C 1120.921875 1187.378906 1117.148438 1195.199219 1119.351562 1202.421875 L 1135.871094 1262.628906 C 1139.128906 1274.320312 1145.679688 1283.628906 1158.488281 1294.75 C 1159.410156 1295.550781 1159.511719 1296.949219 1158.710938 1297.871094 C 1158.269531 1298.378906 1157.660156 1298.628906 1157.039062 1298.628906"/></g><g id="change1_29"><path d="M 1252.71875 1249.839844 C 1251.941406 1249.839844 1251.179688 1249.429688 1250.78125 1248.699219 L 1236.480469 1222.839844 C 1235.890625 1221.78125 1236.28125 1220.429688 1237.339844 1219.839844 C 1238.410156 1219.25 1239.761719 1219.640625 1240.351562 1220.710938 L 1254.648438 1246.558594 C 1255.238281 1247.628906 1254.851562 1248.980469 1253.789062 1249.570312 C 1253.449219 1249.75 1253.078125 1249.839844 1252.71875 1249.839844"/></g><g id="change3_4"><path d="M 1759.582031 1322.574219 L 1510.679688 1416.105469 L 1357.285156 1296.710938 L 1272.398438 1409.253906 L 1440.1875 1539.847656 C 1469.78125 1562.875 1508.953125 1568.828125 1543.878906 1555.605469 L 1803.238281 1457.417969 L 1759.582031 1322.574219" fill="#8c7bff"/></g><g id="change3_5"><path d="M 1726.226562 1373.300781 C 1727.113281 1388.671875 1717.851562 1409.53125 1699.59375 1422.738281 C 1682.417969 1435.167969 1672.453125 1456.609375 1675.546875 1479.3125 C 1677.804688 1496.011719 1686.695312 1510.109375 1699.15625 1519.289062 C 1709.988281 1527.269531 1716.753906 1539.730469 1716.597656 1553.332031 L 1715.273438 1669.671875 C 1715.234375 1672.929688 1717.902344 1675.558594 1721.113281 1675.421875 L 2153.539062 1895.75 L 2086.476562 1407.230469 C 2062.351562 1346.960938 1979.804688 1310.582031 1915.816406 1313.46875 L 1773.699219 1319.871094 C 1745.980469 1321.109375 1724.617188 1345.160156 1726.226562 1373.300781" fill="#8c7bff"/></g><g id="change1_30"><path d="M 1715.507812 1677.882812 C 1715.496094 1677.882812 1715.496094 1677.882812 1715.484375 1677.882812 C 1714.265625 1677.871094 1713.289062 1676.863281 1713.300781 1675.640625 L 1714.710938 1550.960938 C 1714.859375 1539.429688 1709.335938 1528.730469 1699.980469 1522.351562 C 1685.605469 1512.550781 1676.015625 1496.972656 1673.664062 1479.589844 C 1670.566406 1456.792969 1680.121094 1434.324219 1698.609375 1420.941406 C 1713.9375 1409.855469 1723.355469 1393.277344 1724.46875 1375.46875 C 1724.535156 1374.246094 1725.625 1373.3125 1726.804688 1373.398438 C 1728.023438 1373.472656 1728.957031 1374.523438 1728.871094 1375.742188 C 1727.683594 1394.867188 1717.597656 1412.65625 1701.199219 1424.523438 C 1684.046875 1436.945312 1675.167969 1457.820312 1678.042969 1479 C 1680.238281 1495.132812 1689.136719 1509.601562 1702.472656 1518.691406 C 1713.058594 1525.910156 1719.285156 1537.992188 1719.144531 1551.011719 L 1717.714844 1675.691406 C 1717.703125 1676.910156 1716.714844 1677.882812 1715.507812 1677.882812"/></g><g id="change1_31"><path d="M 1837.441406 1510.171875 C 1837.097656 1510.171875 1836.757812 1510.09375 1836.4375 1509.921875 C 1818.066406 1500.382812 1805.808594 1482.28125 1803.640625 1461.523438 C 1800.140625 1428.023438 1823.1875 1398.3125 1856.109375 1393.882812 C 1857.328125 1393.710938 1858.421875 1394.5625 1858.59375 1395.773438 C 1858.753906 1396.984375 1857.898438 1398.101562 1856.691406 1398.261719 C 1826.164062 1402.375 1804.78125 1429.953125 1808.03125 1461.0625 C 1810.050781 1480.34375 1821.429688 1497.144531 1838.46875 1506.003906 C 1839.550781 1506.5625 1839.972656 1507.902344 1839.414062 1508.984375 C 1839.015625 1509.742188 1838.238281 1510.171875 1837.441406 1510.171875"/></g><g id="change7_7"><path d="M 1778.585938 1631.328125 C 1775.125 1629.289062 1758.265625 1610.898438 1728.171875 1611.078125 L 1716.222656 1611.148438 C 1702.875 1611.230469 1700.160156 1616.339844 1686.878906 1616.417969 L 1631.949219 1616.75 C 1623.929688 1616.796875 1617.457031 1623.4375 1617.511719 1631.589844 L 1617.523438 1632.707031 C 1617.566406 1640.859375 1624.101562 1647.429688 1632.132812 1647.378906 L 1778.671875 1646.507812 L 1778.585938 1631.328125" fill="#955b50"/></g><g id="change7_8"><path d="M 1755.609375 1643.945312 L 1701.648438 1687.15625 C 1687.925781 1698.136719 1670.972656 1704.105469 1653.492188 1704.128906 C 1619.652344 1704.15625 1604.300781 1703.054688 1580.898438 1708.925781 L 1577.601562 1709.757812 C 1568.671875 1711.996094 1560.058594 1705.175781 1559.992188 1695.847656 L 1559.992188 1694.625 C 1559.960938 1687.957031 1564.429688 1682.136719 1570.796875 1680.535156 C 1584.625 1677.066406 1597.582031 1673.417969 1618.273438 1673.296875 L 1637.140625 1673.175781 C 1654.515625 1673.078125 1671.371094 1667.066406 1684.996094 1656.117188 L 1699.71875 1644.285156 L 1755.609375 1643.945312" fill="#955b50"/></g><g id="change7_9"><path d="M 1743.058594 1733.457031 L 1647.464844 1734.648438 C 1637.308594 1734.777344 1627.246094 1732.6875 1617.941406 1728.535156 L 1611.664062 1725.726562 C 1600.597656 1720.777344 1595.582031 1707.65625 1600.445312 1696.40625 C 1602.253906 1692.21875 1607.078125 1690.316406 1611.203125 1692.15625 L 1620.734375 1696.417969 C 1632.207031 1701.546875 1644.613281 1704.136719 1657.144531 1704.007812 L 1742.875 1703.136719 L 1743.058594 1733.457031" fill="#955b50"/></g><g id="change7_10"><path d="M 1765.214844 1752.03125 C 1752.859375 1759.550781 1738.785156 1763.640625 1724.386719 1763.890625 L 1693.648438 1764.4375 C 1683.496094 1764.558594 1673.433594 1762.480469 1664.128906 1758.320312 L 1657.847656 1755.519531 C 1646.78125 1750.570312 1641.753906 1737.441406 1646.636719 1726.199219 C 1648.445312 1722.007812 1653.261719 1720.097656 1657.382812 1721.949219 L 1684.320312 1733.988281 L 1796.652344 1732.167969 L 1765.214844 1752.03125" fill="#955b50"/></g><g id="change7_11"><path d="M 1709.703125 1631.851562 L 1656.585938 1699.167969 L 1645.394531 1734.21875 L 1857.582031 1732.851562 L 1856.988281 1630.96875 L 1709.703125 1631.851562" fill="#955b50"/></g><g id="change6_5"><path d="M 1815.324219 1631.058594 L 1856.988281 1630.96875 L 1857.582031 1732.851562 L 1827.5625 1733.050781 L 1815.324219 1631.058594" fill="#020202"/></g><g id="change1_32"><path d="M 1574.167969 1712.398438 C 1570.605469 1712.398438 1567.121094 1711.21875 1564.222656 1708.976562 C 1560.167969 1705.828125 1557.8125 1701.046875 1557.78125 1695.867188 L 1557.78125 1694.636719 C 1557.738281 1686.929688 1562.863281 1680.257812 1570.246094 1678.398438 L 1573.078125 1677.6875 C 1585.671875 1674.5 1598.699219 1671.199219 1618.253906 1671.078125 L 1637.125 1670.96875 C 1653.921875 1670.867188 1670.4375 1664.976562 1683.601562 1654.386719 L 1694.832031 1645.367188 C 1695.792969 1644.597656 1697.1875 1644.75 1697.9375 1645.707031 C 1698.699219 1646.65625 1698.550781 1648.046875 1697.601562 1648.808594 L 1686.378906 1657.835938 C 1672.421875 1669.046875 1654.949219 1675.289062 1637.15625 1675.386719 L 1618.277344 1675.507812 C 1599.269531 1675.617188 1587.078125 1678.707031 1574.15625 1681.976562 L 1571.324219 1682.6875 C 1565.925781 1684.046875 1562.175781 1688.949219 1562.207031 1694.609375 L 1562.207031 1695.839844 C 1562.238281 1699.660156 1563.949219 1703.167969 1566.929688 1705.480469 C 1569.835938 1707.726562 1573.511719 1708.5 1577.050781 1707.617188 L 1580.359375 1706.789062 C 1600.558594 1701.71875 1615.246094 1701.789062 1639.566406 1701.878906 C 1647.023438 1701.90625 1655.464844 1701.949219 1665.335938 1701.847656 C 1667.277344 1701.828125 1680.929688 1701.75 1691.578125 1701.6875 C 1700.433594 1701.667969 1709.105469 1702.617188 1717.632812 1704.609375 L 1720.210938 1705.207031 C 1721.40625 1705.488281 1722.144531 1706.679688 1721.859375 1707.867188 C 1721.59375 1709.058594 1720.410156 1709.796875 1719.21875 1709.519531 L 1716.628906 1708.917969 C 1708.429688 1707.007812 1700 1706.089844 1691.601562 1706.109375 C 1680.960938 1706.167969 1667.320312 1706.246094 1665.375 1706.269531 C 1655.488281 1706.367188 1647.023438 1706.335938 1639.542969 1706.308594 C 1614.757812 1706.199219 1601.085938 1706.136719 1581.425781 1711.078125 L 1578.128906 1711.90625 C 1576.816406 1712.238281 1575.488281 1712.398438 1574.167969 1712.398438"/></g><g id="change1_33"><path d="M 1719.886719 1739.4375 C 1719.738281 1739.4375 1719.582031 1739.417969 1719.421875 1739.378906 L 1716.261719 1738.6875 C 1708.179688 1736.917969 1699.90625 1736.066406 1691.589844 1736.195312 L 1647.496094 1736.855469 C 1636.964844 1736.976562 1626.703125 1734.867188 1617.046875 1730.558594 L 1610.769531 1727.746094 C 1602.125 1723.886719 1596.484375 1715.207031 1596.378906 1705.625 C 1596.367188 1704.40625 1597.339844 1703.40625 1598.566406 1703.386719 C 1598.574219 1703.386719 1598.574219 1703.386719 1598.585938 1703.386719 C 1599.800781 1703.386719 1600.785156 1704.367188 1600.792969 1705.578125 C 1600.890625 1713.4375 1605.507812 1720.546875 1612.566406 1723.707031 L 1618.851562 1726.515625 C 1627.917969 1730.566406 1637.542969 1732.546875 1647.433594 1732.4375 L 1691.515625 1731.777344 C 1700.140625 1731.667969 1708.78125 1732.515625 1717.214844 1734.367188 L 1720.363281 1735.066406 C 1721.558594 1735.328125 1722.308594 1736.507812 1722.042969 1737.695312 C 1721.832031 1738.726562 1720.914062 1739.4375 1719.886719 1739.4375"/></g><g id="change1_34"><path d="M 1692.757812 1766.652344 C 1682.523438 1766.652344 1672.597656 1764.53125 1663.230469 1760.339844 L 1656.941406 1757.53125 C 1647.917969 1753.5 1642.28125 1744.429688 1642.554688 1734.429688 C 1642.601562 1733.210938 1643.628906 1732.230469 1644.835938 1732.289062 C 1646.058594 1732.320312 1647.015625 1733.339844 1646.992188 1734.5625 C 1646.742188 1742.761719 1651.363281 1750.203125 1658.746094 1753.5 L 1665.03125 1756.300781 C 1674.101562 1760.359375 1683.722656 1762.351562 1693.613281 1762.230469 L 1724.351562 1761.679688 C 1738.328125 1761.429688 1752.054688 1757.441406 1764.058594 1750.140625 L 1795.253906 1731.011719 L 1855.359375 1730.652344 L 1854.800781 1633.191406 L 1777.976562 1633.539062 L 1777.453125 1633.242188 C 1776.78125 1632.832031 1775.925781 1632.140625 1774.644531 1631.082031 C 1768.164062 1625.75 1753.046875 1613.289062 1728.609375 1613.289062 C 1728.46875 1613.289062 1728.324219 1613.289062 1728.175781 1613.289062 L 1716.238281 1613.371094 C 1709.894531 1613.402344 1706.152344 1614.609375 1702.183594 1615.902344 C 1698.097656 1617.222656 1693.863281 1618.589844 1686.894531 1618.632812 L 1631.957031 1618.960938 C 1625.167969 1619 1619.679688 1624.660156 1619.710938 1631.582031 L 1619.722656 1632.699219 C 1619.746094 1636.050781 1621.046875 1639.203125 1623.398438 1641.5625 C 1625.714844 1643.890625 1628.78125 1645.171875 1632.035156 1645.171875 C 1632.070312 1645.171875 1632.09375 1645.171875 1632.113281 1645.171875 L 1715.613281 1644.671875 C 1715.613281 1644.671875 1715.613281 1644.671875 1715.625 1644.671875 C 1716.832031 1644.671875 1717.8125 1645.652344 1717.824219 1646.871094 C 1717.835938 1648.089844 1716.84375 1649.089844 1715.625 1649.089844 L 1632.136719 1649.589844 C 1632.101562 1649.589844 1632.070312 1649.589844 1632.035156 1649.589844 C 1627.597656 1649.589844 1623.421875 1647.851562 1620.261719 1644.679688 C 1617.089844 1641.492188 1615.332031 1637.25 1615.296875 1632.71875 L 1615.296875 1631.601562 C 1615.238281 1622.25 1622.714844 1614.589844 1631.933594 1614.542969 L 1686.859375 1614.210938 C 1693.15625 1614.171875 1696.875 1612.972656 1700.824219 1611.691406 C 1704.933594 1610.359375 1709.1875 1608.992188 1716.203125 1608.941406 L 1728.164062 1608.871094 C 1754.496094 1608.710938 1771.15625 1622.480469 1777.453125 1627.671875 C 1778.136719 1628.230469 1778.800781 1628.773438 1779.253906 1629.121094 L 1859.191406 1628.75 L 1859.796875 1735.050781 L 1796.519531 1735.429688 L 1766.363281 1753.910156 C 1753.6875 1761.628906 1739.183594 1765.839844 1724.429688 1766.101562 L 1693.683594 1766.652344 C 1693.375 1766.652344 1693.066406 1766.652344 1692.757812 1766.652344"/></g><g id="change3_6"><path d="M 2162.164062 1645.121094 L 2155.675781 1475.011719 C 2152.09375 1380.179688 2073.179688 1306.429688 1979.851562 1310.699219 L 1904.667969 1314.148438 L 2018.335938 1452.757812 L 2024.625 1603.609375 L 1827.089844 1612.710938 L 1833.289062 1751.589844 L 2073.90625 1740.460938 C 2123.867188 1738.140625 2162.960938 1695.910156 2162.164062 1645.121094" fill="#8c7bff"/></g><g id="change1_35"><path d="M 1831.195312 1753.910156 L 1824.78125 1610.597656 L 2022.316406 1601.507812 L 2016.128906 1452.847656 C 2016.089844 1451.628906 2017.03125 1450.597656 2018.253906 1450.546875 C 2019.476562 1450.527344 2020.5 1451.4375 2020.550781 1452.667969 L 2026.925781 1605.71875 L 1829.402344 1614.816406 L 1835.40625 1749.277344 L 2073.816406 1738.25 C 2122.898438 1735.96875 2160.730469 1695.078125 2159.960938 1645.148438 L 2153.464844 1475.097656 C 2151.738281 1429.308594 2132.371094 1387.15625 2098.949219 1356.40625 C 2066.257812 1326.335938 2024.019531 1310.886719 1979.957031 1312.90625 L 1912.25 1316.015625 C 1911.003906 1316.046875 1909.992188 1315.128906 1909.941406 1313.90625 C 1909.886719 1312.6875 1910.832031 1311.65625 1912.050781 1311.597656 L 1979.757812 1308.496094 C 2024.960938 1306.429688 2068.371094 1322.277344 2101.9375 1353.148438 C 2136.25 1384.707031 2156.109375 1427.957031 2157.886719 1474.929688 L 2164.371094 1645.027344 C 2165.195312 1697.417969 2125.515625 1740.277344 2074.015625 1742.667969 L 1831.195312 1753.910156"/></g><g id="change1_36"><path d="M 2023.519531 1605.875 C 2022.351562 1605.875 2021.363281 1604.945312 2021.3125 1603.765625 C 2021.261719 1602.546875 2022.199219 1601.507812 2023.417969 1601.457031 L 2063.570312 1599.605469 C 2064.785156 1599.578125 2065.8125 1600.488281 2065.875 1601.707031 C 2065.925781 1602.925781 2064.988281 1603.96875 2063.773438 1604.015625 L 2023.632812 1605.867188 C 2023.582031 1605.875 2023.558594 1605.875 2023.519531 1605.875"/></g><g id="change4_2"><path d="M 704.910156 584.9375 L 527.351562 582.304688 L 459.40625 417.675781 L 704.910156 584.9375" fill="#4ada85"/></g><g id="change2_7"><path d="M 614.160156 721.277344 C 613.71875 721.277344 613.285156 721.140625 612.914062 720.894531 L 524.527344 660.671875 C 523.515625 659.980469 523.257812 658.613281 523.941406 657.605469 C 524.632812 656.585938 526.003906 656.328125 527.015625 657.015625 L 613.570312 715.984375 L 653.144531 657.503906 C 653.828125 656.484375 655.203125 656.226562 656.214844 656.914062 C 657.226562 657.59375 657.492188 658.972656 656.808594 659.980469 L 615.992188 720.304688 C 615.660156 720.792969 615.152344 721.132812 614.574219 721.234375 C 614.4375 721.265625 614.300781 721.277344 614.160156 721.277344" fill="#fff"/></g><g id="change1_37"><path d="M 525.773438 661.042969 C 525.34375 661.042969 524.910156 660.917969 524.527344 660.660156 L 367.414062 553.617188 C 366.40625 552.925781 366.144531 551.558594 366.828125 550.546875 L 457.574219 416.429688 C 457.902344 415.941406 458.414062 415.609375 458.988281 415.496094 C 459.566406 415.394531 460.164062 415.507812 460.648438 415.839844 L 706.15625 583.109375 C 707.164062 583.796875 707.425781 585.167969 706.742188 586.175781 L 656.8125 659.96875 C 656.125 660.980469 654.753906 661.25 653.742188 660.558594 C 652.730469 659.878906 652.464844 658.5 653.148438 657.488281 L 701.847656 585.523438 L 459.992188 420.75 L 371.722656 551.199219 L 527.019531 657.003906 C 528.027344 657.695312 528.289062 659.074219 527.601562 660.085938 C 527.171875 660.710938 526.476562 661.042969 525.773438 661.042969"/></g><g id="change1_38"><path d="M 704.910156 587.160156 C 704.039062 587.160156 703.214844 586.648438 702.863281 585.792969 L 635.472656 422.507812 L 459.371094 419.898438 C 458.148438 419.875 457.171875 418.875 457.191406 417.648438 C 457.210938 416.445312 458.195312 415.472656 459.402344 415.472656 C 459.414062 415.472656 459.425781 415.472656 459.433594 415.472656 L 636.992188 418.109375 C 637.878906 418.121094 638.667969 418.660156 639.003906 419.476562 L 706.953125 584.105469 C 707.417969 585.230469 706.878906 586.535156 705.75 586.992188 C 705.476562 587.109375 705.191406 587.160156 704.910156 587.160156"/></g><g id="change1_39"><path d="M 782.550781 1604.441406 C 738.574219 1604.441406 695.46875 1592.078125 657.429688 1568.078125 C 604.117188 1534.449219 567.175781 1481.949219 553.402344 1420.28125 C 524.960938 1292.910156 605.390625 1165.550781 732.691406 1136.359375 C 765.488281 1128.839844 798.683594 1128.320312 831.351562 1134.800781 C 832.550781 1135.039062 833.328125 1136.199219 833.089844 1137.398438 C 832.851562 1138.601562 831.691406 1139.378906 830.488281 1139.140625 C 798.4375 1132.78125 765.867188 1133.289062 733.679688 1140.671875 C 608.742188 1169.308594 529.804688 1294.308594 557.71875 1419.320312 C 571.230469 1479.828125 607.480469 1531.339844 659.789062 1564.339844 C 712.15625 1597.378906 774.34375 1607.941406 834.890625 1594.050781 C 959.828125 1565.410156 1038.769531 1440.410156 1010.851562 1315.410156 C 1004.328125 1286.191406 992.507812 1259.011719 975.710938 1234.621094 C 975.019531 1233.621094 975.269531 1232.238281 976.277344 1231.550781 C 977.28125 1230.851562 978.660156 1231.109375 979.351562 1232.109375 C 996.472656 1256.96875 1008.519531 1284.671875 1015.171875 1314.441406 C 1043.609375 1441.808594 963.179688 1569.179688 835.878906 1598.359375 C 818.148438 1602.429688 800.273438 1604.441406 782.550781 1604.441406"/></g><g id="change2_8"><path d="M 977.53125 1235.578125 C 976.832031 1235.578125 976.140625 1235.238281 975.710938 1234.621094 C 941.921875 1185.550781 888.988281 1150.75 830.488281 1139.140625 C 829.292969 1138.898438 828.515625 1137.738281 828.753906 1136.539062 C 828.988281 1135.339844 830.152344 1134.558594 831.351562 1134.800781 C 890.972656 1146.640625 944.914062 1182.101562 979.351562 1232.109375 C 980.046875 1233.121094 979.789062 1234.5 978.785156 1235.191406 C 978.402344 1235.449219 977.964844 1235.578125 977.53125 1235.578125" fill="#fff"/></g><g id="change9_1"><path d="M 892.355469 1446.71875 L 856.703125 1412.578125 C 851.894531 1408.199219 841.359375 1405.910156 828.605469 1412.210938 C 816.621094 1418.121094 797.386719 1427.371094 763.144531 1382.398438 C 728.914062 1337.46875 741.445312 1319.851562 751.675781 1311.230469 C 753.222656 1309.929688 764.828125 1296.949219 758.703125 1283.921875 L 740.453125 1250.109375 C 725.089844 1223.96875 702.679688 1243.570312 701.378906 1244.671875 C 664.761719 1275.488281 674.210938 1346.898438 724.09375 1412.359375 C 773.972656 1477.828125 840.164062 1505.738281 879.421875 1478.378906 C 880.820312 1477.410156 904.480469 1459.339844 892.355469 1446.71875" fill="#fda4ff"/></g></g></svg>