<svg xmlns="http://www.w3.org/2000/svg" version="1.1" xmlns:xlink="http://www.w3.org/1999/xlink" xmlns:svgjs="http://svgjs.com/svgjs" width="800" height="1200" preserveAspectRatio="none" viewBox="0 0 800 1200">
    <g mask="url(&quot;#SvgjsMask1028&quot;)" fill="none">
        <path d="M113.88 298.66L178.84 336.16L178.84 411.16L113.88 448.66L48.93 411.16L48.93 336.16zM113.88 973.66L178.84 1011.16L178.84 1086.16L113.88 1123.66L48.93 1086.16L48.93 1011.16zM113.88 1198.66L178.84 1236.16L178.84 1311.16L113.88 1348.66L48.93 1311.16L48.93 1236.16zM243.79 73.66L308.75 111.16L308.75 186.16L243.79 223.66L178.84 186.16L178.84 111.16zM243.79 298.66L308.75 336.16L308.75 411.16L243.79 448.66L178.84 411.16L178.84 336.16zM178.84 411.16L243.79 448.66L243.79 523.66L178.84 561.16L113.88 523.66L113.88 448.66zM373.7 73.66L438.65 111.16L438.65 186.16L373.7 223.66L308.75 186.16L308.75 111.16zM308.75 186.16L373.7 223.66L373.7 298.66L308.75 336.16L243.79 298.66L243.79 223.66zM373.7 298.66L438.65 336.16L438.65 411.16L373.7 448.66L308.75 411.16L308.75 336.16zM308.75 861.16L373.7 898.66L373.7 973.66L308.75 1011.16L243.79 973.66L243.79 898.66zM373.7 973.66L438.65 1011.16L438.65 1086.16L373.7 1123.66L308.75 1086.16L308.75 1011.16zM438.65 186.16L503.61 223.66L503.61 298.66L438.65 336.16L373.7 298.66L373.7 223.66zM438.65 411.16L503.61 448.66L503.61 523.66L438.65 561.16L373.7 523.66L373.7 448.66zM503.61 523.66L568.56 561.16L568.56 636.16L503.61 673.66L438.65 636.16L438.65 561.16zM503.61 973.66L568.56 1011.16L568.56 1086.16L503.61 1123.66L438.65 1086.16L438.65 1011.16zM438.65 1086.16L503.61 1123.66L503.61 1198.66L438.65 1236.16L373.7 1198.66L373.7 1123.66zM568.56 -38.84L633.51 -1.34L633.51 73.66L568.56 111.16L503.61 73.66L503.61 -1.34zM568.56 186.16L633.51 223.66L633.51 298.66L568.56 336.16L503.61 298.66L503.61 223.66zM633.51 298.66L698.47 336.16L698.47 411.16L633.51 448.66L568.56 411.16L568.56 336.16zM568.56 636.16L633.51 673.66L633.51 748.66L568.56 786.16L503.61 748.66L503.61 673.66zM568.56 1086.16L633.51 1123.66L633.51 1198.66L568.56 1236.16L503.61 1198.66L503.61 1123.66zM698.47 -38.84L763.42 -1.34L763.42 73.66L698.47 111.16L633.51 73.66L633.51 -1.34zM763.42 973.66L828.38 1011.16L828.38 1086.16L763.42 1123.66L698.47 1086.16L698.47 1011.16zM698.47 1086.16L763.42 1123.66L763.42 1198.66L698.47 1236.16L633.51 1198.66L633.51 1123.66zM763.42 1198.66L828.38 1236.16L828.38 1311.16L763.42 1348.66L698.47 1311.16L698.47 1236.16zM828.37 411.16L893.33 448.66L893.33 523.66L828.37 561.16L763.42 523.66L763.42 448.66zM893.33 523.66L958.28 561.16L958.28 636.16L893.33 673.66L828.37 636.16L828.37 561.16zM828.37 636.16L893.33 673.66L893.33 748.66L828.37 786.16L763.42 748.66L763.42 673.66zM893.33 748.66L958.28 786.16L958.28 861.16L893.33 898.66L828.37 861.16L828.37 786.16zM828.37 861.16L893.33 898.66L893.33 973.66L828.37 1011.16L763.42 973.66L763.42 898.66zM893.33 973.66L958.28 1011.16L958.28 1086.16L893.33 1123.66L828.37 1086.16L828.37 1011.16z" stroke-width="2" stroke="#1c1c1c"></path>
        <path d="M106.38 298.66 a7.5 7.5 0 1 0 15 0 a7.5 7.5 0 1 0 -15 0zM171.34 336.16 a7.5 7.5 0 1 0 15 0 a7.5 7.5 0 1 0 -15 0zM171.34 411.16 a7.5 7.5 0 1 0 15 0 a7.5 7.5 0 1 0 -15 0zM106.38 448.66 a7.5 7.5 0 1 0 15 0 a7.5 7.5 0 1 0 -15 0zM41.43 411.16 a7.5 7.5 0 1 0 15 0 a7.5 7.5 0 1 0 -15 0zM41.43 336.16 a7.5 7.5 0 1 0 15 0 a7.5 7.5 0 1 0 -15 0zM106.38 973.66 a7.5 7.5 0 1 0 15 0 a7.5 7.5 0 1 0 -15 0zM171.34 1011.16 a7.5 7.5 0 1 0 15 0 a7.5 7.5 0 1 0 -15 0zM171.34 1086.16 a7.5 7.5 0 1 0 15 0 a7.5 7.5 0 1 0 -15 0zM106.38 1123.66 a7.5 7.5 0 1 0 15 0 a7.5 7.5 0 1 0 -15 0zM41.43 1086.16 a7.5 7.5 0 1 0 15 0 a7.5 7.5 0 1 0 -15 0zM41.43 1011.16 a7.5 7.5 0 1 0 15 0 a7.5 7.5 0 1 0 -15 0zM106.38 1198.66 a7.5 7.5 0 1 0 15 0 a7.5 7.5 0 1 0 -15 0zM171.34 1236.16 a7.5 7.5 0 1 0 15 0 a7.5 7.5 0 1 0 -15 0zM171.34 1311.16 a7.5 7.5 0 1 0 15 0 a7.5 7.5 0 1 0 -15 0zM106.38 1348.66 a7.5 7.5 0 1 0 15 0 a7.5 7.5 0 1 0 -15 0zM41.43 1311.16 a7.5 7.5 0 1 0 15 0 a7.5 7.5 0 1 0 -15 0zM41.43 1236.16 a7.5 7.5 0 1 0 15 0 a7.5 7.5 0 1 0 -15 0zM236.29 73.66 a7.5 7.5 0 1 0 15 0 a7.5 7.5 0 1 0 -15 0zM301.25 111.16 a7.5 7.5 0 1 0 15 0 a7.5 7.5 0 1 0 -15 0zM301.25 186.16 a7.5 7.5 0 1 0 15 0 a7.5 7.5 0 1 0 -15 0zM236.29 223.66 a7.5 7.5 0 1 0 15 0 a7.5 7.5 0 1 0 -15 0zM171.34 186.16 a7.5 7.5 0 1 0 15 0 a7.5 7.5 0 1 0 -15 0zM171.34 111.16 a7.5 7.5 0 1 0 15 0 a7.5 7.5 0 1 0 -15 0zM236.29 298.66 a7.5 7.5 0 1 0 15 0 a7.5 7.5 0 1 0 -15 0zM301.25 336.16 a7.5 7.5 0 1 0 15 0 a7.5 7.5 0 1 0 -15 0zM301.25 411.16 a7.5 7.5 0 1 0 15 0 a7.5 7.5 0 1 0 -15 0zM236.29 448.66 a7.5 7.5 0 1 0 15 0 a7.5 7.5 0 1 0 -15 0zM236.29 523.66 a7.5 7.5 0 1 0 15 0 a7.5 7.5 0 1 0 -15 0zM171.34 561.16 a7.5 7.5 0 1 0 15 0 a7.5 7.5 0 1 0 -15 0zM106.38 523.66 a7.5 7.5 0 1 0 15 0 a7.5 7.5 0 1 0 -15 0zM366.2 73.66 a7.5 7.5 0 1 0 15 0 a7.5 7.5 0 1 0 -15 0zM431.15 111.16 a7.5 7.5 0 1 0 15 0 a7.5 7.5 0 1 0 -15 0zM431.15 186.16 a7.5 7.5 0 1 0 15 0 a7.5 7.5 0 1 0 -15 0zM366.2 223.66 a7.5 7.5 0 1 0 15 0 a7.5 7.5 0 1 0 -15 0zM366.2 298.66 a7.5 7.5 0 1 0 15 0 a7.5 7.5 0 1 0 -15 0zM431.15 336.16 a7.5 7.5 0 1 0 15 0 a7.5 7.5 0 1 0 -15 0zM431.15 411.16 a7.5 7.5 0 1 0 15 0 a7.5 7.5 0 1 0 -15 0zM366.2 448.66 a7.5 7.5 0 1 0 15 0 a7.5 7.5 0 1 0 -15 0zM301.25 861.16 a7.5 7.5 0 1 0 15 0 a7.5 7.5 0 1 0 -15 0zM366.2 898.66 a7.5 7.5 0 1 0 15 0 a7.5 7.5 0 1 0 -15 0zM366.2 973.66 a7.5 7.5 0 1 0 15 0 a7.5 7.5 0 1 0 -15 0zM301.25 1011.16 a7.5 7.5 0 1 0 15 0 a7.5 7.5 0 1 0 -15 0zM236.29 973.66 a7.5 7.5 0 1 0 15 0 a7.5 7.5 0 1 0 -15 0zM236.29 898.66 a7.5 7.5 0 1 0 15 0 a7.5 7.5 0 1 0 -15 0zM431.15 1011.16 a7.5 7.5 0 1 0 15 0 a7.5 7.5 0 1 0 -15 0zM431.15 1086.16 a7.5 7.5 0 1 0 15 0 a7.5 7.5 0 1 0 -15 0zM366.2 1123.66 a7.5 7.5 0 1 0 15 0 a7.5 7.5 0 1 0 -15 0zM301.25 1086.16 a7.5 7.5 0 1 0 15 0 a7.5 7.5 0 1 0 -15 0zM496.11 223.66 a7.5 7.5 0 1 0 15 0 a7.5 7.5 0 1 0 -15 0zM496.11 298.66 a7.5 7.5 0 1 0 15 0 a7.5 7.5 0 1 0 -15 0zM496.11 448.66 a7.5 7.5 0 1 0 15 0 a7.5 7.5 0 1 0 -15 0zM496.11 523.66 a7.5 7.5 0 1 0 15 0 a7.5 7.5 0 1 0 -15 0zM431.15 561.16 a7.5 7.5 0 1 0 15 0 a7.5 7.5 0 1 0 -15 0zM366.2 523.66 a7.5 7.5 0 1 0 15 0 a7.5 7.5 0 1 0 -15 0zM561.06 561.16 a7.5 7.5 0 1 0 15 0 a7.5 7.5 0 1 0 -15 0zM561.06 636.16 a7.5 7.5 0 1 0 15 0 a7.5 7.5 0 1 0 -15 0zM496.11 673.66 a7.5 7.5 0 1 0 15 0 a7.5 7.5 0 1 0 -15 0zM431.15 636.16 a7.5 7.5 0 1 0 15 0 a7.5 7.5 0 1 0 -15 0zM496.11 973.66 a7.5 7.5 0 1 0 15 0 a7.5 7.5 0 1 0 -15 0zM561.06 1011.16 a7.5 7.5 0 1 0 15 0 a7.5 7.5 0 1 0 -15 0zM561.06 1086.16 a7.5 7.5 0 1 0 15 0 a7.5 7.5 0 1 0 -15 0zM496.11 1123.66 a7.5 7.5 0 1 0 15 0 a7.5 7.5 0 1 0 -15 0zM496.11 1198.66 a7.5 7.5 0 1 0 15 0 a7.5 7.5 0 1 0 -15 0zM431.15 1236.16 a7.5 7.5 0 1 0 15 0 a7.5 7.5 0 1 0 -15 0zM366.2 1198.66 a7.5 7.5 0 1 0 15 0 a7.5 7.5 0 1 0 -15 0zM561.06 -38.84 a7.5 7.5 0 1 0 15 0 a7.5 7.5 0 1 0 -15 0zM626.01 -1.34 a7.5 7.5 0 1 0 15 0 a7.5 7.5 0 1 0 -15 0zM626.01 73.66 a7.5 7.5 0 1 0 15 0 a7.5 7.5 0 1 0 -15 0zM561.06 111.16 a7.5 7.5 0 1 0 15 0 a7.5 7.5 0 1 0 -15 0zM496.11 73.66 a7.5 7.5 0 1 0 15 0 a7.5 7.5 0 1 0 -15 0zM496.11 -1.34 a7.5 7.5 0 1 0 15 0 a7.5 7.5 0 1 0 -15 0zM561.06 186.16 a7.5 7.5 0 1 0 15 0 a7.5 7.5 0 1 0 -15 0zM626.01 223.66 a7.5 7.5 0 1 0 15 0 a7.5 7.5 0 1 0 -15 0zM626.01 298.66 a7.5 7.5 0 1 0 15 0 a7.5 7.5 0 1 0 -15 0zM561.06 336.16 a7.5 7.5 0 1 0 15 0 a7.5 7.5 0 1 0 -15 0zM690.97 336.16 a7.5 7.5 0 1 0 15 0 a7.5 7.5 0 1 0 -15 0zM690.97 411.16 a7.5 7.5 0 1 0 15 0 a7.5 7.5 0 1 0 -15 0zM626.01 448.66 a7.5 7.5 0 1 0 15 0 a7.5 7.5 0 1 0 -15 0zM561.06 411.16 a7.5 7.5 0 1 0 15 0 a7.5 7.5 0 1 0 -15 0zM626.01 673.66 a7.5 7.5 0 1 0 15 0 a7.5 7.5 0 1 0 -15 0zM626.01 748.66 a7.5 7.5 0 1 0 15 0 a7.5 7.5 0 1 0 -15 0zM561.06 786.16 a7.5 7.5 0 1 0 15 0 a7.5 7.5 0 1 0 -15 0zM496.11 748.66 a7.5 7.5 0 1 0 15 0 a7.5 7.5 0 1 0 -15 0zM626.01 1123.66 a7.5 7.5 0 1 0 15 0 a7.5 7.5 0 1 0 -15 0zM626.01 1198.66 a7.5 7.5 0 1 0 15 0 a7.5 7.5 0 1 0 -15 0zM561.06 1236.16 a7.5 7.5 0 1 0 15 0 a7.5 7.5 0 1 0 -15 0zM690.97 -38.84 a7.5 7.5 0 1 0 15 0 a7.5 7.5 0 1 0 -15 0zM755.92 -1.34 a7.5 7.5 0 1 0 15 0 a7.5 7.5 0 1 0 -15 0zM755.92 73.66 a7.5 7.5 0 1 0 15 0 a7.5 7.5 0 1 0 -15 0zM690.97 111.16 a7.5 7.5 0 1 0 15 0 a7.5 7.5 0 1 0 -15 0zM755.92 973.66 a7.5 7.5 0 1 0 15 0 a7.5 7.5 0 1 0 -15 0zM820.88 1011.16 a7.5 7.5 0 1 0 15 0 a7.5 7.5 0 1 0 -15 0zM820.88 1086.16 a7.5 7.5 0 1 0 15 0 a7.5 7.5 0 1 0 -15 0zM755.92 1123.66 a7.5 7.5 0 1 0 15 0 a7.5 7.5 0 1 0 -15 0zM690.97 1086.16 a7.5 7.5 0 1 0 15 0 a7.5 7.5 0 1 0 -15 0zM690.97 1011.16 a7.5 7.5 0 1 0 15 0 a7.5 7.5 0 1 0 -15 0zM755.92 1198.66 a7.5 7.5 0 1 0 15 0 a7.5 7.5 0 1 0 -15 0zM690.97 1236.16 a7.5 7.5 0 1 0 15 0 a7.5 7.5 0 1 0 -15 0zM820.88 1236.16 a7.5 7.5 0 1 0 15 0 a7.5 7.5 0 1 0 -15 0zM820.88 1311.16 a7.5 7.5 0 1 0 15 0 a7.5 7.5 0 1 0 -15 0zM755.92 1348.66 a7.5 7.5 0 1 0 15 0 a7.5 7.5 0 1 0 -15 0zM690.97 1311.16 a7.5 7.5 0 1 0 15 0 a7.5 7.5 0 1 0 -15 0zM820.87 411.16 a7.5 7.5 0 1 0 15 0 a7.5 7.5 0 1 0 -15 0zM885.83 448.66 a7.5 7.5 0 1 0 15 0 a7.5 7.5 0 1 0 -15 0zM885.83 523.66 a7.5 7.5 0 1 0 15 0 a7.5 7.5 0 1 0 -15 0zM820.87 561.16 a7.5 7.5 0 1 0 15 0 a7.5 7.5 0 1 0 -15 0zM755.92 523.66 a7.5 7.5 0 1 0 15 0 a7.5 7.5 0 1 0 -15 0zM755.92 448.66 a7.5 7.5 0 1 0 15 0 a7.5 7.5 0 1 0 -15 0zM950.78 561.16 a7.5 7.5 0 1 0 15 0 a7.5 7.5 0 1 0 -15 0zM950.78 636.16 a7.5 7.5 0 1 0 15 0 a7.5 7.5 0 1 0 -15 0zM885.83 673.66 a7.5 7.5 0 1 0 15 0 a7.5 7.5 0 1 0 -15 0zM820.87 636.16 a7.5 7.5 0 1 0 15 0 a7.5 7.5 0 1 0 -15 0zM885.83 748.66 a7.5 7.5 0 1 0 15 0 a7.5 7.5 0 1 0 -15 0zM820.87 786.16 a7.5 7.5 0 1 0 15 0 a7.5 7.5 0 1 0 -15 0zM755.92 748.66 a7.5 7.5 0 1 0 15 0 a7.5 7.5 0 1 0 -15 0zM755.92 673.66 a7.5 7.5 0 1 0 15 0 a7.5 7.5 0 1 0 -15 0zM950.78 786.16 a7.5 7.5 0 1 0 15 0 a7.5 7.5 0 1 0 -15 0zM950.78 861.16 a7.5 7.5 0 1 0 15 0 a7.5 7.5 0 1 0 -15 0zM885.83 898.66 a7.5 7.5 0 1 0 15 0 a7.5 7.5 0 1 0 -15 0zM820.87 861.16 a7.5 7.5 0 1 0 15 0 a7.5 7.5 0 1 0 -15 0zM885.83 973.66 a7.5 7.5 0 1 0 15 0 a7.5 7.5 0 1 0 -15 0zM820.87 1011.16 a7.5 7.5 0 1 0 15 0 a7.5 7.5 0 1 0 -15 0zM755.92 898.66 a7.5 7.5 0 1 0 15 0 a7.5 7.5 0 1 0 -15 0zM950.78 1011.16 a7.5 7.5 0 1 0 15 0 a7.5 7.5 0 1 0 -15 0zM950.78 1086.16 a7.5 7.5 0 1 0 15 0 a7.5 7.5 0 1 0 -15 0zM885.83 1123.66 a7.5 7.5 0 1 0 15 0 a7.5 7.5 0 1 0 -15 0zM820.87 1086.16 a7.5 7.5 0 1 0 15 0 a7.5 7.5 0 1 0 -15 0z" fill="none"></path>
    </g>
    <defs>
        <mask id="SvgjsMask1028">
            <rect width="800" height="1200" fill="#ffffff"></rect>
        </mask>
    </defs>
</svg>